<?xml version="1.0" encoding="utf-8"?>
<!-- Generator: Adobe Illustrator 25.0.1, SVG Export Plug-In . SVG Version: 6.00 Build 0)  -->
<svg version="1.1" id="Layer_1" xmlns="http://www.w3.org/2000/svg" xmlns:xlink="http://www.w3.org/1999/xlink" x="0px" y="0px"
	 viewBox="0 0 67.2 20" style="enable-background:new 0 0 67.2 20;" xml:space="preserve">
<style type="text/css">
	.st0{fill:#231F20;}
	.st1{font-family:'HelveticaNeue-Light';}
	.st2{font-size:7px;}
</style>
<polygon class="st0" points="6.7,3.3 6.7,0 0,0 0,16.7 6.7,16.7 6.7,13.3 3.3,13.3 3.3,10 6.7,10 6.7,6.7 3.3,6.7 3.3,3.3 "/>
<polygon class="st0" points="8.2,16.7 8.2,20 14.9,20 14.9,3.3 8.2,3.3 8.2,6.7 11.5,6.7 11.5,10 8.2,10 8.2,13.3 11.5,13.3 
	11.5,16.7 "/>
<text transform="matrix(1 0 0 1 18.33 12.82)" class="st0 st1 st2">E</text>
<text transform="matrix(1 0 0 1 23.18 12.82)" class="st0 st1 st2">V</text>
<text transform="matrix(1 0 0 1 27.65 12.82)" class="st0 st1 st2">A ERHARD</text>
</svg>
